<svg width="128" height="128" viewBox="0 0 128 128" fill="none" xmlns="http://www.w3.org/2000/svg">
<rect width="128" height="128" fill="#333333"/>
<path d="M107.585 77.4427C110.645 76.1225 112.784 73.0861 112.784 69.5448C112.784 65.906 110.521 62.8106 107.328 61.5494C109.198 59.9693 110.406 57.6418 110.406 55.0042C110.406 50.246 106.552 46.3914 101.796 46.3914H82.1726C84.0571 42.6817 85.6933 37.7786 85.1351 31.9128C84.6123 26.3926 79.9574 16.6338 72.7803 16.0579C67.2511 15.6148 66.182 17.6883 66.182 23.2352C66.182 23.2352 66.244 28.6078 66.244 32.0518C66.244 38.2219 64.1913 41.3615 56.9372 46.5629C47.3676 53.4241 45.7077 56.9654 45.7077 56.9654V97.9231C45.7077 103.068 49.8783 107.239 55.0233 107.239H94.702C99.4633 107.239 105.896 104.941 105.896 98.6289C105.896 96.266 104.945 94.1275 103.403 92.571C107.568 91.9684 110.778 88.4182 110.778 84.0853C110.778 81.3948 109.52 79.023 107.585 77.4427Z" fill="white"/>
<path d="M34.2798 53.9528H20.6549C18.0852 53.9528 16 56.035 16 58.6106V107.345C16 109.915 18.0852 112 20.6549 112H34.2798C36.8523 112 38.9377 109.915 38.9377 107.345V58.6106C38.9377 56.035 36.8525 53.9528 34.2798 53.9528ZM28.4583 104.607C26.0776 104.607 24.1459 102.675 24.1459 100.295C24.1459 97.914 26.0776 95.9823 28.4583 95.9823C30.8448 95.9823 32.7706 97.914 32.7706 100.295C32.7706 102.675 30.8448 104.607 28.4583 104.607Z" fill="white"/>
</svg>
